name C:\Users\u0101727\Documents\MyRepositories\upper-imu-dc\Results\main_tracking\Case_43\FLX01_linearAccelerations_bodyFrame.mot
datacolumns 4
datarows 47
range 5.01000000 5.47000000
endheader 
time	radius_imu_x	radius_imu_y	radius_imu_z	
          5.01000000	         -0.84535199	          3.80135837	         10.99779727	
          5.02000000	         -0.76777752	          3.89590319	         11.10769150	
          5.03000000	         -0.53493838	          4.01592192	         11.04194768	
          5.04000000	         -0.54159971	          4.13068148	         10.94576148	
          5.05000000	         -0.51721433	          4.24403680	         10.86323918	
          5.06000000	         -0.49835571	          4.35777000	         10.76484204	
          5.07000000	         -0.48263049	          4.47186768	         10.65458594	
          5.08000000	         -0.46933968	          4.58690591	         10.53321725	
          5.09000000	         -0.45813215	          4.70294237	         10.40180452	
          5.10000000	         -0.45212063	          4.82018447	         10.25969694	
          5.11000000	         -0.45187206	          4.93859091	         10.10885579	
          5.12000000	         -0.45726564	          5.05824367	          9.95179755	
          5.13000000	         -0.46924909	          5.17906853	          9.79021058	
          5.14000000	         -0.48870033	          5.30091319	          9.62544054	
          5.15000000	         -0.51579488	          5.42366032	          9.45916123	
          5.16000000	         -0.55061532	          5.54707167	          9.29302621	
          5.17000000	         -0.59326311	          5.67088382	          9.12877026	
          5.18000000	         -0.64380419	          5.79475360	          8.96828420	
          5.19000000	         -0.70215702	          5.91827685	          8.81348829	
          5.20000000	         -0.76820529	          6.04104942	          8.66650584	
          5.21000000	         -0.84171513	          6.16265898	          8.52921178	
          5.22000000	         -0.92210043	          6.28268144	          8.40278933	
          5.23000000	         -1.00848170	          6.40069175	          8.28763754	
          5.24000000	         -1.09956882	          6.51625609	          8.18322925	
          5.25000000	         -1.19369926	          6.62893621	          8.08815963	
          5.26000000	         -1.28928387	          6.73833273	          8.00038644	
          5.27000000	         -1.38498317	          6.84410232	          7.91729057	
          5.28000000	         -1.47958152	          6.94596281	          7.83584559	
          5.29000000	         -1.57196641	          7.04372934	          7.75312159	
          5.30000000	         -1.66113127	          7.13733863	          7.66667667	
          5.31000000	         -1.74626383	          7.22685209	          7.57471569	
          5.32000000	         -1.82685107	          7.31245205	          7.47635155	
          5.33000000	         -1.90274032	          7.39441435	          7.37176143	
          5.34000000	         -1.97417476	          7.47305766	          7.26200461	
          5.35000000	         -2.04158903	          7.54869190	          7.14885727	
          5.36000000	         -2.10537213	          7.62158381	          7.03459781	
          5.37000000	         -2.16585777	          7.69193817	          6.92136535	
          5.38000000	         -2.22322756	          7.75989082	          6.81050037	
          5.39000000	         -2.27723045	          7.82552409	          6.70243395	
          5.40000000	         -2.32711498	          7.88890777	          6.59692214	
          5.41000000	         -2.37187834	          7.95014671	          6.49330088	
          5.42000000	         -2.41056795	          8.00941691	          6.39076323	
          5.43000000	         -2.44244004	          8.06697578	          6.28861659	
          5.44000000	         -2.46693462	          8.12314056	          6.18640618	
          5.45000000	         -2.48364328	          8.17825570	          6.08385718	
          5.46000000	         -2.49238287	          8.23266455	          5.98075704	
          5.47000000	         -2.49330128	          8.28669054	          5.87690937	
